<svg width="12px" height="12px" viewBox="0 0 12 12" version="1.1" xmlns="http://www.w3.org/2000/svg"><g id="Style-Guide" stroke="none" stroke-width="1" fill="none" fill-rule="evenodd"><g id="Overview" transform="translate(-1137.000000, -1414.000000)" fill="#f9f9f9"><g id="Icons" transform="translate(792.000000, 1339.000000)"><g id="white" transform="translate(235.000000, 73.000000)"><g id="icon/search" transform="translate(108.000000, 0.000000)"><path d="M14,13.1516 L13.1516,14 L10.6058,11.4548 L11.4542,10.6058 L14,13.1516 Z M6.8,10.4 C4.8152,10.4 3.2,8.7854 3.2,6.8 C3.2,4.8152 4.8152,3.2 6.8,3.2 C8.7848,3.2 10.4,4.8152 10.4,6.8 C10.4,8.7854 8.7848,10.4 6.8,10.4 L6.8,10.4 Z M6.8,2 C4.1492,2 2,4.1492 2,6.8 C2,9.4508 4.1492,11.6 6.8,11.6 C9.4508,11.6 11.6,9.4508 11.6,6.8 C11.6,4.1492 9.4508,2 6.8,2 L6.8,2 Z" id="icon" transform="translate(8.000000, 8.000000) scale(-1, 1) translate(-8.000000, -8.000000) "></path></g></g></g></g></g></svg>